<svg height="2462" width="720" xmlns="http://www.w3.org/2000/svg">
<rect height="2462" fill="#555" width="720"></rect>
<text fill="#7f7" font-family="Courier New" font-size="12" xml:space="preserve">
<tspan x="10" y="26">89 megabytes</tspan>
<tspan x="10" y="42">└─┬ phantomas@1.18.0 </tspan>
<tspan x="10" y="58">  ├─┬ analyze-css@0.12.4 </tspan>
<tspan x="10" y="74">  │ ├─┬ cli@1.0.1 </tspan>
<tspan x="10" y="90">  │ │ └── exit@0.1.2 </tspan>
<tspan x="10" y="106">  │ ├─┬ css@2.2.1 </tspan>
<tspan x="10" y="122">  │ │ ├─┬ source-map@0.1.43 </tspan>
<tspan x="10" y="138">  │ │ │ └── amdefine@1.0.1 </tspan>
<tspan x="10" y="154">  │ │ ├─┬ source-map-resolve@0.3.1 </tspan>
<tspan x="10" y="170">  │ │ │ ├── atob@1.1.3 </tspan>
<tspan x="10" y="186">  │ │ │ ├── resolve-url@0.2.1 </tspan>
<tspan x="10" y="202">  │ │ │ └── source-map-url@0.3.0 </tspan>
<tspan x="10" y="218">  │ │ └── urix@0.1.0 </tspan>
<tspan x="10" y="234">  │ ├── css-shorthand-properties@1.0.0 </tspan>
<tspan x="10" y="250">  │ ├─┬ debug@2.2.0 </tspan>
<tspan x="10" y="266">  │ │ └── ms@0.7.1 </tspan>
<tspan x="10" y="282">  │ ├── fast-stats@0.0.3 </tspan>
<tspan x="10" y="298">  │ ├─┬ glob@7.1.1 </tspan>
<tspan x="10" y="314">  │ │ ├── fs.realpath@1.0.0 </tspan>
<tspan x="10" y="330">  │ │ ├─┬ inflight@1.0.6 </tspan>
<tspan x="10" y="346">  │ │ │ └── wrappy@1.0.2 </tspan>
<tspan x="10" y="362">  │ │ ├─┬ minimatch@3.0.3 </tspan>
<tspan x="10" y="378">  │ │ │ └─┬ brace-expansion@1.1.7 </tspan>
<tspan x="10" y="394">  │ │ │   ├── balanced-match@0.4.2 </tspan>
<tspan x="10" y="410">  │ │ │   └── concat-map@0.0.1 </tspan>
<tspan x="10" y="426">  │ │ ├── once@1.4.0 </tspan>
<tspan x="10" y="442">  │ │ └── path-is-absolute@1.0.1 </tspan>
<tspan x="10" y="458">  │ ├─┬ http-proxy-agent@1.0.0 </tspan>
<tspan x="10" y="474">  │ │ ├─┬ agent-base@2.0.1 </tspan>
<tspan x="10" y="490">  │ │ │ └── semver@5.0.3 </tspan>
<tspan x="10" y="506">  │ │ └── extend@3.0.0 </tspan>
<tspan x="10" y="522">  │ ├─┬ node-fetch@1.6.3 </tspan>
<tspan x="10" y="538">  │ │ ├─┬ encoding@0.1.12 </tspan>
<tspan x="10" y="554">  │ │ │ └── iconv-lite@0.4.15 </tspan>
<tspan x="10" y="570">  │ │ └── is-stream@1.1.0 </tspan>
<tspan x="10" y="586">  │ ├── onecolor@3.0.4 </tspan>
<tspan x="10" y="602">  │ ├── slick@1.12.2 </tspan>
<tspan x="10" y="618">  │ └── specificity@0.2.1 </tspan>
<tspan x="10" y="634">  ├── ansicolors@0.3.2 </tspan>
<tspan x="10" y="650">  ├── ansistyles@0.1.3 </tspan>
<tspan x="10" y="666">  ├── ascii-table@0.0.9 </tspan>
<tspan x="10" y="682">  ├─┬ async@2.3.0 </tspan>
<tspan x="10" y="698">  │ └── lodash@4.17.4 </tspan>
<tspan x="10" y="714">  ├── csv-string@2.3.2 </tspan>
<tspan x="10" y="730">  ├─┬ debug@2.6.3 </tspan>
<tspan x="10" y="746">  │ └── ms@0.7.2 </tspan>
<tspan x="10" y="762">  ├─┬ js-yaml@3.8.3 </tspan>
<tspan x="10" y="778">  │ ├─┬ argparse@1.0.9 </tspan>
<tspan x="10" y="794">  │ │ └── sprintf-js@1.0.3 </tspan>
<tspan x="10" y="810">  │ └── esprima@3.1.3 </tspan>
<tspan x="10" y="826">  ├── node-statsd@0.1.1 </tspan>
<tspan x="10" y="842">  ├── node-uuid@1.4.8 </tspan>
<tspan x="10" y="858">  ├─┬ optimist@0.6.1 </tspan>
<tspan x="10" y="874">  │ ├── minimist@0.0.10 </tspan>
<tspan x="10" y="890">  │ └── wordwrap@0.0.3 </tspan>
<tspan x="10" y="906">  ├─┬ phantomjs-prebuilt@2.1.14 </tspan>
<tspan x="10" y="922">  │ ├── es6-promise@4.0.5 </tspan>
<tspan x="10" y="938">  │ ├─┬ extract-zip@1.5.0 </tspan>
<tspan x="10" y="954">  │ │ ├─┬ concat-stream@1.5.0 </tspan>
<tspan x="10" y="970">  │ │ │ ├─┬ readable-stream@2.0.6 </tspan>
<tspan x="10" y="986">  │ │ │ │ ├── core-util-is@1.0.2 </tspan>
<tspan x="10" y="1002">  │ │ │ │ ├── isarray@1.0.0 </tspan>
<tspan x="10" y="1018">  │ │ │ │ ├── process-nextick-args@1.0.7 </tspan>
<tspan x="10" y="1034">  │ │ │ │ ├── string_decoder@0.10.31 </tspan>
<tspan x="10" y="1050">  │ │ │ │ └── util-deprecate@1.0.2 </tspan>
<tspan x="10" y="1066">  │ │ │ └── typedarray@0.0.6 </tspan>
<tspan x="10" y="1082">  │ │ ├── debug@0.7.4 </tspan>
<tspan x="10" y="1098">  │ │ ├─┬ mkdirp@0.5.0 </tspan>
<tspan x="10" y="1114">  │ │ │ └── minimist@0.0.8 </tspan>
<tspan x="10" y="1130">  │ │ └─┬ yauzl@2.4.1 </tspan>
<tspan x="10" y="1146">  │ │   └─┬ fd-slicer@1.0.1 </tspan>
<tspan x="10" y="1162">  │ │     └── pend@1.2.0 </tspan>
<tspan x="10" y="1178">  │ ├─┬ fs-extra@1.0.0 </tspan>
<tspan x="10" y="1194">  │ │ ├── graceful-fs@4.1.11 </tspan>
<tspan x="10" y="1210">  │ │ ├── jsonfile@2.4.0 </tspan>
<tspan x="10" y="1226">  │ │ └── klaw@1.3.1 </tspan>
<tspan x="10" y="1242">  │ ├─┬ hasha@2.2.0 </tspan>
<tspan x="10" y="1258">  │ │ └─┬ pinkie-promise@2.0.1 </tspan>
<tspan x="10" y="1274">  │ │   └── pinkie@2.0.4 </tspan>
<tspan x="10" y="1290">  │ ├── kew@0.7.0 </tspan>
<tspan x="10" y="1306">  │ ├─┬ request@2.79.0 </tspan>
<tspan x="10" y="1322">  │ │ ├── aws-sign2@0.6.0 </tspan>
<tspan x="10" y="1338">  │ │ ├── aws4@1.6.0 </tspan>
<tspan x="10" y="1354">  │ │ ├── caseless@0.11.0 </tspan>
<tspan x="10" y="1370">  │ │ ├─┬ combined-stream@1.0.5 </tspan>
<tspan x="10" y="1386">  │ │ │ └── delayed-stream@1.0.0 </tspan>
<tspan x="10" y="1402">  │ │ ├── forever-agent@0.6.1 </tspan>
<tspan x="10" y="1418">  │ │ ├─┬ form-data@2.1.2 </tspan>
<tspan x="10" y="1434">  │ │ │ └── asynckit@0.4.0 </tspan>
<tspan x="10" y="1450">  │ │ ├─┬ har-validator@2.0.6 </tspan>
<tspan x="10" y="1466">  │ │ │ ├─┬ chalk@1.1.3 </tspan>
<tspan x="10" y="1482">  │ │ │ │ ├── ansi-styles@2.2.1 </tspan>
<tspan x="10" y="1498">  │ │ │ │ ├── escape-string-regexp@1.0.5 </tspan>
<tspan x="10" y="1514">  │ │ │ │ ├─┬ has-ansi@2.0.0 </tspan>
<tspan x="10" y="1530">  │ │ │ │ │ └── ansi-regex@2.1.1 </tspan>
<tspan x="10" y="1546">  │ │ │ │ ├── strip-ansi@3.0.1 </tspan>
<tspan x="10" y="1562">  │ │ │ │ └── supports-color@2.0.0 </tspan>
<tspan x="10" y="1578">  │ │ │ ├─┬ commander@2.9.0 </tspan>
<tspan x="10" y="1594">  │ │ │ │ └── graceful-readlink@1.0.1 </tspan>
<tspan x="10" y="1610">  │ │ │ └─┬ is-my-json-valid@2.16.0 </tspan>
<tspan x="10" y="1626">  │ │ │   ├── generate-function@2.0.0 </tspan>
<tspan x="10" y="1642">  │ │ │   ├─┬ generate-object-property@1.2.0 </tspan>
<tspan x="10" y="1658">  │ │ │   │ └── is-property@1.0.2 </tspan>
<tspan x="10" y="1674">  │ │ │   ├── jsonpointer@4.0.1 </tspan>
<tspan x="10" y="1690">  │ │ │   └── xtend@4.0.1 </tspan>
<tspan x="10" y="1706">  │ │ ├─┬ hawk@3.1.3 </tspan>
<tspan x="10" y="1722">  │ │ │ ├── boom@2.10.1 </tspan>
<tspan x="10" y="1738">  │ │ │ ├── cryptiles@2.0.5 </tspan>
<tspan x="10" y="1754">  │ │ │ ├── hoek@2.16.3 </tspan>
<tspan x="10" y="1770">  │ │ │ └── sntp@1.0.9 </tspan>
<tspan x="10" y="1786">  │ │ ├─┬ http-signature@1.1.1 </tspan>
<tspan x="10" y="1802">  │ │ │ ├── assert-plus@0.2.0 </tspan>
<tspan x="10" y="1818">  │ │ │ ├─┬ jsprim@1.4.0 </tspan>
<tspan x="10" y="1834">  │ │ │ │ ├── assert-plus@1.0.0 </tspan>
<tspan x="10" y="1850">  │ │ │ │ ├── extsprintf@1.0.2 </tspan>
<tspan x="10" y="1866">  │ │ │ │ ├── json-schema@0.2.3 </tspan>
<tspan x="10" y="1882">  │ │ │ │ └── verror@1.3.6 </tspan>
<tspan x="10" y="1898">  │ │ │ └─┬ sshpk@1.11.0 </tspan>
<tspan x="10" y="1914">  │ │ │   ├── asn1@0.2.3 </tspan>
<tspan x="10" y="1930">  │ │ │   ├── assert-plus@1.0.0 </tspan>
<tspan x="10" y="1946">  │ │ │   ├── bcrypt-pbkdf@1.0.1 </tspan>
<tspan x="10" y="1962">  │ │ │   ├─┬ dashdash@1.14.1 </tspan>
<tspan x="10" y="1978">  │ │ │   │ └── assert-plus@1.0.0 </tspan>
<tspan x="10" y="1994">  │ │ │   ├── ecc-jsbn@0.1.1 </tspan>
<tspan x="10" y="2010">  │ │ │   ├─┬ getpass@0.1.6 </tspan>
<tspan x="10" y="2026">  │ │ │   │ └── assert-plus@1.0.0 </tspan>
<tspan x="10" y="2042">  │ │ │   ├── jodid25519@1.0.2 </tspan>
<tspan x="10" y="2058">  │ │ │   ├── jsbn@0.1.1 </tspan>
<tspan x="10" y="2074">  │ │ │   └── tweetnacl@0.14.5 </tspan>
<tspan x="10" y="2090">  │ │ ├── is-typedarray@1.0.0 </tspan>
<tspan x="10" y="2106">  │ │ ├── isstream@0.1.2 </tspan>
<tspan x="10" y="2122">  │ │ ├── json-stringify-safe@5.0.1 </tspan>
<tspan x="10" y="2138">  │ │ ├─┬ mime-types@2.1.15 </tspan>
<tspan x="10" y="2154">  │ │ │ └── mime-db@1.27.0 </tspan>
<tspan x="10" y="2170">  │ │ ├── oauth-sign@0.8.2 </tspan>
<tspan x="10" y="2186">  │ │ ├── qs@6.3.2 </tspan>
<tspan x="10" y="2202">  │ │ ├── stringstream@0.0.5 </tspan>
<tspan x="10" y="2218">  │ │ ├─┬ tough-cookie@2.3.2 </tspan>
<tspan x="10" y="2234">  │ │ │ └── punycode@1.4.1 </tspan>
<tspan x="10" y="2250">  │ │ ├── tunnel-agent@0.4.3 </tspan>
<tspan x="10" y="2266">  │ │ └── uuid@3.0.1 </tspan>
<tspan x="10" y="2282">  │ ├─┬ request-progress@2.0.1 </tspan>
<tspan x="10" y="2298">  │ │ └── throttleit@1.0.0 </tspan>
<tspan x="10" y="2314">  │ └─┬ which@1.2.14 </tspan>
<tspan x="10" y="2330">  │   └── isexe@2.0.0 </tspan>
<tspan x="10" y="2346">  ├── progress@1.1.8 </tspan>
<tspan x="10" y="2362">  ├── q@1.5.0 </tspan>
<tspan x="10" y="2378">  ├── slimerjs@0.10.3 </tspan>
<tspan x="10" y="2394">  ├─┬ tap-producer-macbre@0.0.3 </tspan>
<tspan x="10" y="2410">  │ ├── inherits@2.0.3 </tspan>
<tspan x="10" y="2426">  │ └── yamlish@0.0.7 </tspan>
<tspan x="10" y="2442">  └── travis-fold@0.1.2</tspan>
</text>
</svg>
